<svg width="70" height="70" viewBox="0 0 70 70" fill="none" xmlns="http://www.w3.org/2000/svg">
<circle cx="35" cy="35" r="35" fill="#D0CFCE"/>
<path d="M16.1667 29.9167L14.5465 31.5369L12.9263 29.9167L14.5465 28.2965L16.1667 29.9167ZM55.125 48.25C55.125 48.8578 54.8836 49.4407 54.4538 49.8705C54.024 50.3002 53.4411 50.5417 52.8334 50.5417C52.2256 50.5417 51.6427 50.3002 51.2129 49.8705C50.7831 49.4407 50.5417 48.8578 50.5417 48.25H55.125ZM26.0048 42.9952L14.5465 31.5369L17.7869 28.2965L29.2452 39.7548L26.0048 42.9952ZM14.5465 28.2965L26.0048 16.8381L29.2452 20.0786L17.7869 31.5369L14.5465 28.2965ZM16.1667 27.625H39.0834V32.2083H16.1667V27.625ZM55.125 43.6667V48.25H50.5417V43.6667H55.125ZM39.0834 27.625C43.3379 27.625 47.4181 29.3151 50.4265 32.3235C53.4349 35.3319 55.125 39.4122 55.125 43.6667H50.5417C50.5417 40.6277 49.3345 37.7133 47.1856 35.5644C45.0368 33.4156 42.1223 32.2083 39.0834 32.2083V27.625Z" fill="black"/>
</svg>
