<svg width="45" height="45" viewBox="0 0 45 45" fill="none" xmlns="http://www.w3.org/2000/svg">
<path d="M13.9706 32.2962C13.5006 33.0231 12.6362 33.2981 12.0394 32.9119C11.4419 32.5256 11.3381 31.6237 11.8081 30.8969C11.8081 30.8969 12.3669 30.0056 14.3119 28.9975C14.3119 28.9975 14.6975 28.7769 14.67 29.1975C14.55 31.385 13.97 32.2962 13.97 32.2962" fill="#92D3F5"/>
<path d="M14.2575 29.0862C14.5975 30.1175 13.8057 32.18 13.8057 32.18C13.2069 33.0356 12.4725 33.1187 11.8425 32.6775C11.8425 32.6775 13.5425 32.0712 14.2575 29.0862Z" fill="#61B2E4"/>
<path d="M32.7856 32.2962C32.3162 33.0231 31.4518 33.2981 30.8543 32.9119C30.2568 32.5256 30.1537 31.6237 30.6231 30.8969C30.6231 30.8969 31.1818 30.0056 33.1275 28.9975C33.1275 28.9975 33.5131 28.7769 33.485 29.1975C33.3656 31.385 32.7856 32.2962 32.7856 32.2962Z" fill="#92D3F5"/>
<path d="M33.0731 29.0862C33.4131 30.1175 32.6212 32.18 32.6212 32.18C32.0218 33.0356 31.2875 33.1187 30.6575 32.6775C30.6575 32.6775 32.3575 32.0712 33.0731 29.0862Z" fill="#61B2E4"/>
<path d="M23.3781 32.2962C22.9081 33.0231 22.0444 33.2981 21.4469 32.9119C20.8494 32.5256 20.7456 31.6237 21.2156 30.8969C21.2156 30.8969 21.7744 30.0056 23.7194 28.9975C23.7194 28.9975 24.105 28.7769 24.0775 29.1975C23.9581 31.385 23.3781 32.2962 23.3781 32.2962Z" fill="#92D3F5"/>
<path d="M23.665 29.0862C24.0056 30.1175 23.2137 32.18 23.2137 32.18C22.6144 33.0356 21.88 33.1187 21.25 32.6775C21.25 32.6775 22.95 32.0712 23.665 29.0862Z" fill="#61B2E4"/>
<path d="M18.3619 37.0281C17.8919 37.755 17.0281 38.03 16.4306 37.6437C15.8331 37.2581 15.7294 36.3556 16.1994 35.6287C16.1994 35.6287 16.7581 34.7375 18.7031 33.7294C18.7031 33.7294 19.0887 33.5087 19.0612 33.9294C18.9412 36.1169 18.3619 37.0281 18.3619 37.0281Z" fill="#92D3F5"/>
<path d="M18.6488 33.8187C18.9888 34.85 18.1969 36.9119 18.1969 36.9119C17.5981 37.7681 16.8638 37.8512 16.2338 37.41C16.2338 37.41 17.9338 36.8037 18.6488 33.8187Z" fill="#61B2E4"/>
<path d="M27.7694 37.0281C27.3 37.755 26.4356 38.03 25.8381 37.6437C25.2406 37.2575 25.1369 36.3556 25.6069 35.6287C25.6069 35.6287 26.1656 34.7375 28.1113 33.7294C28.1113 33.7294 28.4963 33.5087 28.4688 33.9294C28.3494 36.1169 27.7694 37.0281 27.7694 37.0281Z" fill="#92D3F5"/>
<path d="M28.0562 33.8187C28.3969 34.85 27.605 36.9119 27.605 36.9119C27.0056 37.7681 26.2712 37.8512 25.6412 37.41C25.6412 37.41 27.3412 36.8031 28.0569 33.8181" fill="#61B2E4"/>
<path d="M12.0494 13.9481C12.0388 14.0563 11.9912 14.1575 11.9147 14.2347C11.8382 14.3119 11.7374 14.3603 11.6294 14.3719C8.94187 14.6594 6.875 17.3056 6.875 20.5262C6.875 23.9387 9.24187 26.7062 12.1619 26.7062H32.3169C35.5244 26.7062 38.125 23.7825 38.125 20.175C38.125 16.7187 35.7369 13.8894 32.7144 13.66C32.6032 13.653 32.4974 13.6094 32.4137 13.5359C32.33 13.4623 32.2731 13.3631 32.2519 13.2537C31.5769 9.78687 28.4619 7.18124 24.7794 7.18124C22.3862 7.18124 20.2544 8.26499 18.87 9.98812C18.735 10.1569 18.5075 10.2337 18.3081 10.1506C17.7756 9.92687 17.2131 9.81874 16.5831 9.81874C14.2044 9.81874 12.2519 11.6344 12.0494 13.9481Z" fill="#D0CFCE"/>
<path d="M13.9706 32.2962C13.5006 33.0231 12.6362 33.2981 12.0394 32.9119C11.4419 32.5256 11.3381 31.6237 11.8081 30.8969C11.8081 30.8969 12.3556 29.9544 14.3119 28.9975C14.3119 28.9975 14.6975 28.7769 14.67 29.1975C14.55 31.385 13.97 32.2962 13.97 32.2962M32.7856 32.2962C32.3162 33.0231 31.4519 33.2981 30.8544 32.9119C30.2569 32.5256 30.1537 31.6237 30.6231 30.8969C30.6231 30.8969 31.1706 29.9544 33.1275 28.9975C33.1275 28.9975 33.5131 28.7769 33.485 29.1975C33.3656 31.385 32.7856 32.2962 32.7856 32.2962ZM23.3781 32.2962C22.9081 33.0231 22.0444 33.2981 21.4469 32.9119C20.8494 32.5256 20.7456 31.6237 21.2156 30.8969C21.2156 30.8969 21.7631 29.9544 23.7194 28.9975C23.7194 28.9975 24.105 28.7769 24.0775 29.1975C23.9581 31.385 23.3781 32.2962 23.3781 32.2962ZM18.3619 37.0281C17.8919 37.755 17.0281 38.03 16.4306 37.6437C15.8331 37.2581 15.7294 36.3556 16.1994 35.6287C16.1994 35.6287 16.7469 34.6862 18.7031 33.7294C18.7031 33.7294 19.0887 33.5087 19.0612 33.9294C18.9412 36.1169 18.3619 37.0281 18.3619 37.0281ZM27.7694 37.0281C27.3 37.755 26.4356 38.03 25.8381 37.6437C25.2406 37.2575 25.1369 36.3556 25.6069 35.6287C25.6069 35.6287 26.1544 34.6862 28.1112 33.7294C28.1112 33.7294 28.4962 33.5087 28.4687 33.9294C28.3494 36.1169 27.7694 37.0281 27.7694 37.0281Z" stroke="black" stroke-width="1.8" stroke-miterlimit="10" stroke-linecap="round" stroke-linejoin="round"/>
<path d="M12.0494 13.9481C12.0388 14.0563 11.9912 14.1575 11.9147 14.2347C11.8382 14.3119 11.7374 14.3603 11.6294 14.3719C8.94187 14.6594 6.875 17.3056 6.875 20.5262C6.875 23.9387 9.24187 26.7062 12.1619 26.7062H32.3169C35.5244 26.7062 38.125 23.7825 38.125 20.175C38.125 16.7187 35.7369 13.8894 32.7144 13.66C32.6032 13.653 32.4974 13.6094 32.4137 13.5359C32.33 13.4623 32.2731 13.3631 32.2519 13.2537C31.5769 9.78687 28.4619 7.18124 24.7794 7.18124C22.3862 7.18124 20.2544 8.26499 18.87 9.98812C18.735 10.1569 18.5075 10.2337 18.3081 10.1506C17.7756 9.92687 17.2131 9.81874 16.5831 9.81874C14.2044 9.81874 12.2519 11.6344 12.0494 13.9481Z" stroke="black" stroke-width="2" stroke-miterlimit="10" stroke-linecap="round" stroke-linejoin="round"/>
</svg>
