<svg width="245" height="245" viewBox="0 0 245 245" fill="none" xmlns="http://www.w3.org/2000/svg">
<path d="M133.257 61.7859L131.688 29.9168C131.343 25.1316 127.63 21.4375 123.17 21.4375H122.73C118.251 21.4375 114.537 25.1316 114.212 29.9168L112.566 62.9344C112.394 65.4801 113.198 67.9875 114.825 69.8441C116.432 71.7199 118.71 72.7727 121.084 72.7727H124.873C129.582 72.7727 133.41 68.6766 133.41 63.6043C133.448 63.0109 133.391 62.3793 133.257 61.7859ZM95.4352 244.33C77.7684 244.33 62.4559 232.367 58.1875 215.236C56.7328 209.418 60.293 203.522 66.1117 202.068C71.9113 200.594 77.8258 204.173 79.2805 209.992C80.1772 213.597 82.2553 216.798 85.1832 219.084C88.1112 221.37 91.7204 222.61 95.4352 222.605C104.623 222.605 112.087 215.141 112.087 205.934V86.6305C112.087 83.7496 113.232 80.9867 115.269 78.9497C117.306 76.9126 120.069 75.7682 122.95 75.7682C125.831 75.7682 128.594 76.9126 130.631 78.9497C132.668 80.9867 133.812 83.7496 133.812 86.6305V205.915C133.812 227.104 116.605 244.33 95.4352 244.33Z" fill="#78A3AD"/>
<path d="M48.6938 129.142C64.6188 129.142 78.4574 137.985 85.5969 151.02C92.7363 137.985 106.594 129.142 122.5 129.142C138.425 129.142 152.264 137.985 159.403 151.02C166.543 137.985 180.381 129.142 196.306 129.142C209.15 129.142 220.634 134.922 228.348 143.995C228.577 141.832 228.73 139.669 228.73 137.468C228.73 93.4828 181.166 57.8047 122.5 57.8047C63.834 57.8047 16.2695 93.4637 16.2695 137.468C16.2695 139.669 16.4227 141.832 16.6523 143.995C24.366 134.922 35.8504 129.142 48.6938 129.142Z" fill="#006CA2"/>
<path d="M168.399 76.0457C167.902 76.0457 167.404 76.1606 166.964 76.3902C164.38 77.6727 155.46 95.7988 155.46 106.269C155.46 113.408 161.279 119.208 168.399 119.208C175.539 119.208 181.357 113.389 181.357 106.269C181.338 98.3445 173.165 76.0457 168.399 76.0457ZM187.827 0.669922C187.31 0.669922 186.793 0.784766 186.334 1.01445C183.654 2.31602 174.409 21.1312 174.409 31.984C174.409 39.3914 180.439 45.4016 187.827 45.4016C195.234 45.4016 201.245 39.3914 201.245 31.984C201.245 23.7918 192.784 0.669922 187.827 0.669922ZM53.5937 0.669922C53.0769 0.669922 52.5601 0.784766 52.1008 1.01445C49.4211 2.31602 40.1761 21.1312 40.1761 31.984C40.1761 39.3914 46.2054 45.4016 53.5937 45.4016C61.0011 45.4016 67.0113 39.3914 67.0113 31.984C67.0304 23.7918 58.5511 0.669922 53.5937 0.669922Z" fill="#40C0E7"/>
<path d="M159.403 155.556C157.757 155.556 156.226 154.656 155.441 153.202C152.205 147.293 147.44 142.362 141.645 138.928C135.849 135.493 129.237 133.68 122.5 133.678C108.795 133.678 96.1625 141.162 89.559 153.202C87.9703 156.111 83.2043 156.111 81.6156 153.202C78.3801 147.293 73.6149 142.362 67.8195 138.928C62.024 135.493 55.4115 133.68 48.6746 133.678C37.6688 133.678 27.2563 138.521 20.0785 146.943C18.911 148.321 17.0352 148.857 15.2934 148.34C13.5707 147.804 12.3266 146.292 12.116 144.493C11.8672 142.177 11.6949 139.841 11.6949 137.468C11.6949 91.052 61.384 53.2875 122.462 53.2875C183.539 53.2875 233.229 91.052 233.229 137.468C233.229 139.822 233.075 142.177 232.807 144.493C232.616 146.292 231.353 147.804 229.63 148.34C227.888 148.838 226.032 148.321 224.864 146.943C217.706 138.521 207.274 133.678 196.268 133.678C182.544 133.678 169.93 141.162 163.346 153.202C162.58 154.656 161.068 155.556 159.403 155.556ZM48.6938 124.625C63.2789 124.625 76.8496 131.439 85.5969 142.789C89.9472 137.139 95.5368 132.562 101.935 129.413C108.333 126.264 115.369 124.626 122.5 124.625C137.085 124.625 150.656 131.439 159.403 142.789C163.752 137.137 169.341 132.56 175.74 129.41C182.138 126.261 189.175 124.624 196.306 124.625C206.413 124.625 216.117 127.898 224.079 133.831C221.514 94.0953 176.936 62.341 122.5 62.341C68.0641 62.341 23.4856 94.0953 20.9207 133.831C28.8832 127.898 38.5875 124.625 48.6938 124.625Z" fill="#006CA2"/>
</svg>
